#!OML:ASF H:\Terrain\Patient Classification 1\Animal1\Tuesday\Animal1.ASF
:FULLY-SPECIFIED
:DEGREES
2503
root 0.73741 17.9275 2.81398 -707.244 17.6578 -2.98001
lowerback 6.9236 -0.387678 -8.64483
upperback -1.52458 -1.76814 -10.7126
thorax -5.64356 -0.741756 -6.3502
lowerneck 1.94324 4.16831 -4.95486
upperneck -25.8163 10.5265 19.1498
head -9.73183 3.95358 6.68746
rclavicle 1.35174e-014 9.54166e-015
rhumerus -5.8005 15.6845 13.8773
rradius 26.0919
rwrist -16.24
rhand -7.51781 16.8305
rfingers 7.12502
rthumb 18.3728 -12.3218
lclavicle 1.35174e-014 9.54166e-015
lhumerus 0.239865 17.6381 25.5282
lradius 59.285
lwrist -28.9022
lhand -7.0712 36.9291
lfingers 7.12502
lthumb 18.8023 66.0404
rfemur -24.3658 8.52148 32.3561
rtibia 28.3874
rfoot 30.229 -12.8197
rtoes 11.3672
lfemur -31.4654 -3.98586 -10.2512
ltibia 41.8687
lfoot 13.293 -0.752098
ltoes 18.0017
2504
root 0.746253 17.933 2.82275 -707.071 18.225 -2.83057
lowerback 7.10377 -0.328617 -8.75834
upperback -1.34846 -1.70279 -10.8097
thorax -5.55535 -0.707091 -6.39871
lowerneck 2.43045 4.02558 -4.84772
upperneck -26.2499 10.4055 19.0656
head -9.96 3.84965 6.6616
rclavicle 4.21423e-014 -1.08139e-013
rhumerus -6.37035 16.7783 13.9326
rradius 26.061
rwrist -16.1411
rhand -7.17265 17.0657
rfingers 7.12502
rthumb 18.7048 -12.055
lclavicle 4.21423e-014 -1.08139e-013
lhumerus 0.399858 17.1951 25.6817
lradius 59.3264
lwrist -28.8292
lhand -7.2644 36.7862
lfingers 7.12502
lthumb 18.6165 65.9154
rfemur -24.3356 8.50652 32.1778
rtibia 28.0818
rfoot 30.5107 -12.8989
rtoes 10.8019
lfemur -31.9758 -4.03182 -10.2549
ltibia 40.9573
lfoot 13.3014 0.526809
ltoes 17.0176
2505
root 0.761127 17.9295 2.83175 -707.109 18.8354 -3.02165
lowerback 7.34034 -0.314599 -8.56298
upperback -1.12062 -1.66788 -10.7849
thorax -5.44731 -0.697101 -6.47928
lowerneck 2.346 4.01076 -4.75649
upperneck -26.2087 10.3855 19.0157
head -9.91751 3.84629 6.62584
rclavicle 1.19271e-014 -2.8625e-014
rhumerus -6.68988 17.9153 14.0466
rradius 25.8998
rwrist -16.1771
rhand -6.6274 17.143
rfingers 7.12502
rthumb 19.2291 -11.9263
lclavicle 1.19271e-014 -2.8625e-014
lhumerus 0.474299 16.888 25.8132
lradius 59.3664
lwrist -28.7397
lhand -7.5388 36.37
lfingers 7.12502
lthumb 18.3526 65.5243
rfemur -24.0754 8.31945 32.4125
rtibia 27.636
rfoot 31.4787 -10.626
rtoes 4.01228
lfemur -32.3973 -4.05515 -9.91809
ltibia 40.1592
lfoot 13.583 1.8655
ltoes 18.4206
2506
root 0.782697 17.9373 2.84332 -707.209 19.5131 -3.31039
lowerback 7.53491 -0.354672 -8.18362
upperback -0.941096 -1.68768 -10.7358
thorax -5.37379 -0.718989 -6.63117
lowerneck 3.09467 4.03264 -4.56028
upperneck -26.8141 10.4974 18.7232
head -10.2852 3.83751 6.48308
rclavicle -7.95139e-016 1.27222e-014
rhumerus -7.08784 18.6784 14.0517
rradius 25.834
rwrist -15.7727
rhand -6.38182 17.3598
rfingers 7.12502
rthumb 19.4653 -11.6859
lclavicle -7.95139e-016 1.27222e-014
lhumerus 0.349776 16.5294 25.9074
lradius 59.4561
lwrist -28.6358
lhand -7.37398 36.3661
lfingers 7.12502
lthumb 18.5111 65.5054
rfemur -23.7259 7.93179 32.7281
rtibia 27.1223
rfoot 31.7911 -9.4852
rtoes 0.935728
lfemur -32.8208 -4.16179 -9.51577
ltibia 39.401
lfoot 14.1459 3.24748
ltoes 20.8626
2507
root 0.802724 17.9448 2.8575 -707.211 20.2121 -3.45816
lowerback 7.6853 -0.439002 -7.9407
upperback -0.779655 -1.77306 -10.6803
thorax -5.29508 -0.768031 -6.69156
lowerneck 3.64835 4.03305 -4.65954
upperneck -27.2301 10.5702 18.6866
head -10.5692 3.83749 6.4932
rclavicle -6.36111e-015 1.27222e-014
rhumerus -7.2312 19.5975 14.0602
rradius 25.7841
rwrist -15.657
rhand -6.30364 17.0746
rfingers 7.12502
rthumb 19.5404 -11.9635
lclavicle -6.36111e-015 1.27222e-014
lhumerus 0.0789 16.2537 26.0001
lradius 59.5551
lwrist -28.6066
lhand -7.04545 36.547
lfingers 7.12502
lthumb 18.8271 65.6559
rfemur -23.4957 7.73676 32.8593
rtibia 26.7016
rfoot 31.8796 -9.5782
rtoes 0.949382
lfemur -33.3097 -4.36353 -9.23082
ltibia 38.5702
lfoot 14.954 4.66113
ltoes 22.9776
